<svg id="Layer_1" enable-background="new 0 0 512 512" height="512" viewBox="0 0 512 512" width="512" xmlns="http://www.w3.org/2000/svg" xmlns:xlink="http://www.w3.org/1999/xlink"><linearGradient id="SVGID_1_" gradientUnits="userSpaceOnUse" x1="256" x2="256" y1="65.1" y2="446.9"><stop offset="0" stop-color="#f704fe"/><stop offset="1" stop-color="#24bce3"/></linearGradient><path d="m442.9 446.9h-373.8c-15.5 0-28.1-12.6-28.1-28.1v-325.6c0-15.4 12.6-28.1 28.1-28.1h373.7c15.5 0 28.1 12.6 28.1 28.1v325.5c.1 15.5-12.5 28.2-28 28.2zm-373.8-372c-10.3 0-18.4 8-18.4 18.3v325.5c0 10.1 8.3 18.4 18.4 18.4h373.7c10.1 0 18.4-8.3 18.4-18.4v-325.5c0-10.1-8.3-18.3-18.4-18.3zm397 78.7h-420.2c-2.7 0-4.9-2.2-4.9-4.9s2.2-4.9 4.9-4.9h420.2c2.7 0 4.9 2.2 4.9 4.9s-2.2 4.9-4.9 4.9zm-309.8-24.9c-10.7 0-19.3-8.6-19.3-19.3s8.6-19.3 19.3-19.3 19.3 8.6 19.3 19.3-8.6 19.3-19.3 19.3zm0-28.8c-5.2 0-9.5 4.3-9.5 9.5s4.3 9.5 9.5 9.5 9.5-4.3 9.5-9.5-4.3-9.5-9.5-9.5zm-53.7 28.8c-10.7 0-19.3-8.6-19.3-19.3s8.6-19.3 19.3-19.3 19.3 8.6 19.3 19.3-8.7 19.3-19.3 19.3zm0-28.8c-5.2 0-9.5 4.3-9.5 9.5s4.3 9.5 9.5 9.5 9.5-4.3 9.5-9.5c-.1-5.2-4.3-9.5-9.5-9.5zm107.5 28.8c-10.7 0-19.3-8.6-19.3-19.3s8.6-19.3 19.3-19.3 19.3 8.6 19.3 19.3-8.7 19.3-19.3 19.3zm0-28.8c-5.2 0-9.5 4.3-9.5 9.5s4.3 9.5 9.5 9.5 9.5-4.3 9.5-9.5c-.1-5.2-4.3-9.5-9.5-9.5zm177.1 321.2c-2.7 0-4.9-2.2-4.9-4.9v-141.6h-26.9v141.7c0 2.7-2.2 4.9-4.9 4.9s-4.9-2.2-4.9-4.9v-142.5c0-5 4.1-9.1 9.1-9.1h28.2c5 0 9.1 4.1 9.1 9.1v142.4c.2 2.8-2 4.9-4.8 4.9zm-225.9 0c-2.7 0-4.9-2.2-4.9-4.9v-61.1h-26.9v61.1c0 2.7-2.2 4.9-4.9 4.9s-4.9-2.2-4.9-4.9v-61.7c0-5 4.1-9.1 9.1-9.1h28.2c5 0 9.1 4.1 9.1 9.1v61.8c.1 2.7-2.1 4.8-4.8 4.8zm75.4 0c-2.7 0-4.9-2.2-4.9-4.9v-118.1h-27v118.2c0 2.7-2.2 4.9-4.9 4.9s-4.9-2.2-4.9-4.9v-118.8c0-5 4.1-9.1 9.1-9.1h28.3c5 0 9.1 4.1 9.1 9.1v118.9c.1 2.6-2 4.7-4.8 4.7zm75.3 0c-2.7 0-4.9-2.2-4.9-4.9v-91.4h-27v91.4c0 2.7-2.2 4.9-4.9 4.9s-4.9-2.2-4.9-4.9v-92.1c0-5 4.1-9.1 9.1-9.1h28.3c5 0 9.1 4.1 9.1 9.1v92.1c.1 2.8-2.1 4.9-4.8 4.9zm-157.6-122.8c-1.2 0-2.4-.4-3.4-1.3-2-1.9-2-5-.2-6.9l52.5-55.2c1.9-2 5-2 6.9-.2s2 5 .2 6.9l-52.4 55.1c-1 1-2.2 1.6-3.6 1.6zm151.6-29.3c-1.3 0-2.7-.5-3.6-1.6-1.8-2-1.7-5.1.4-6.9l50.7-45.8c2-1.8 5.1-1.7 6.9.4 1.8 2 1.7 5.1-.4 6.9l-50.7 45.8c-1 .8-2.2 1.2-3.3 1.2zm-26.1 2.1c-.9 0-1.9-.3-2.7-.8l-47.7-31c-2.2-1.5-2.9-4.5-1.4-6.7s4.5-2.9 6.7-1.4l47.7 31c2.2 1.5 2.9 4.5 1.4 6.7-.9 1.4-2.4 2.2-4 2.2zm-136.9 55.6c-11.8 0-21.4-9.6-21.4-21.4s9.6-21.4 21.4-21.4 21.4 9.6 21.4 21.4c0 11.9-9.6 21.4-21.4 21.4zm0-33c-6.4 0-11.6 5.2-11.6 11.6s5.2 11.6 11.6 11.6 11.6-5.2 11.6-11.6c0-6.3-5.1-11.6-11.6-11.6zm75.4-46.1c-11.8 0-21.4-9.6-21.4-21.4s9.6-21.4 21.4-21.4 21.4 9.6 21.4 21.4-9.6 21.4-21.4 21.4zm0-33.1c-6.4 0-11.6 5.2-11.6 11.6s5.2 11.6 11.6 11.6 11.6-5.2 11.6-11.6-5.2-11.6-11.6-11.6zm75.2 82.1c-11.8 0-21.4-9.6-21.4-21.4s9.6-21.4 21.4-21.4 21.4 9.6 21.4 21.4-9.6 21.4-21.4 21.4zm0-33.1c-6.4 0-11.6 5.2-11.6 11.6s5.2 11.6 11.6 11.6 11.6-5.2 11.6-11.6c.1-6.3-5.2-11.6-11.6-11.6zm75.4-34.8c-11.8 0-21.4-9.6-21.4-21.4s9.6-21.4 21.4-21.4 21.4 9.6 21.4 21.4-9.6 21.4-21.4 21.4zm0-33.1c-6.4 0-11.6 5.2-11.6 11.6s5.2 11.6 11.6 11.6 11.6-5.2 11.6-11.6-5.2-11.6-11.6-11.6zm35.1 251.3c-2.7 0-4.9-2.2-4.9-4.9v-20.9h-286.4v20.8c0 2.7-2.2 4.9-4.9 4.9s-4.9-2.2-4.9-4.9v-23c0-4.2 3.5-7.6 7.6-7.6h290.6c4.2 0 7.6 3.5 7.6 7.6v23c.2 2.7-2.1 5-4.7 5zm-269.9-251.3h-59c-2.7 0-4.9-2.2-4.9-4.9s2.2-4.9 4.9-4.9h59c2.7 0 4.9 2.2 4.9 4.9s-2.1 4.9-4.9 4.9zm-13.2 25.9h-45.8c-2.7 0-4.9-2.2-4.9-4.9s2.2-4.9 4.9-4.9h45.7c2.7 0 4.9 2.2 4.9 4.9.1 2.7-2.2 4.9-4.8 4.9zm-16.3 25.8h-29.5c-2.7 0-4.9-2.2-4.9-4.9s2.2-4.9 4.9-4.9h29.5c2.7 0 4.9 2.2 4.9 4.9s-2.2 4.9-4.9 4.9z" fill="url(#SVGID_1_)"/></svg>