<svg id="Layer_5" enable-background="new 0 0 64 64" height="512" viewBox="0 0 64 64" width="512" xmlns="http://www.w3.org/2000/svg" xmlns:xlink="http://www.w3.org/1999/xlink"><linearGradient id="SVGID_1_" gradientUnits="userSpaceOnUse" x1="32" x2="32" y1="63" y2="1"><stop offset="0" stop-color="#9f2fff"/><stop offset="1" stop-color="#0bb1d3"/></linearGradient><path d="m21 27h2v2h-2zm8 0v2h2v-2zm-4 2h2v-2h-2zm-4 16h2v-2h-2zm8-2v2h2v-2zm-4 2h2v-2h-2zm18-26h-2v2h2zm-4 0h-2v2h2zm-4 0h-2v2h2zm4 16h-2v2h2zm-4 0h-2v2h2zm8 0h-2v2h2zm-33-7.586v27.586c0 .552.448 1 1 1h4.184c.414-1.161 1.514-2 2.816-2 1.654 0 3 1.346 3 3s-1.346 3-3 3c-1.302 0-2.402-.839-2.816-2h-4.184c-1.654 0-3-1.346-3-3v-27.586l-4.293 4.293-1.414-1.414 6.707-6.707 6.707 6.707-1.414 1.414zm7 29.586c0 .552.448 1 1 1s1-.448 1-1-.448-1-1-1-1 .448-1 1zm9 3c-1.654 0-3-1.346-3-3s1.346-3 3-3 3 1.346 3 3-1.346 3-3 3zm0-2c.552 0 1-.448 1-1s-.448-1-1-1-1 .448-1 1 .448 1 1 1zm30-49v27.586l4.293-4.293 1.414 1.414-6.707 6.707-6.707-6.707 1.414-1.414 4.293 4.293v-27.586c0-.552-.448-1-1-1h-4.184c-.414 1.161-1.514 2-2.816 2-1.654 0-3-1.346-3-3s1.346-3 3-3c1.302 0 2.402.839 2.816 2h4.184c1.654 0 3 1.346 3 3zm-9-2c0-.552-.448-1-1-1s-1 .448-1 1 .448 1 1 1 1-.448 1-1zm-9 3c-1.654 0-3-1.346-3-3s1.346-3 3-3 3 1.346 3 3-1.346 3-3 3zm0-2c.552 0 1-.448 1-1s-.448-1-1-1-1 .448-1 1 .448 1 1 1zm25 49c0 3.309-2.691 6-6 6h-20c-3.309 0-6-2.691-6-6 0-2.989 2.197-5.475 5.062-5.927.097-.734.315-1.429.622-2.073h-16.684c-1.654 0-3-1.346-3-3v-27h-10c-3.309 0-6-2.691-6-6 0-2.989 2.197-5.475 5.062-5.927.454-3.424 3.392-6.073 6.938-6.073 2.475 0 4.726 1.292 5.982 3.363.654-.241 1.329-.363 2.018-.363 2.2 0 4.168 1.177 5.219 3.061.268-.041.525-.061.781-.061 3.309 0 6 2.691 6 6 0 .702-.128 1.373-.35 2h11.35c1.654 0 3 1.346 3 3v13 2 13.265c.789.55 1.471 1.255 1.982 2.098.654-.241 1.329-.363 2.018-.363 2.2 0 4.168 1.177 5.219 3.061.268-.041.525-.061.781-.061 3.309 0 6 2.691 6 6zm-18-24h-26v6h26zm0-2v-6h-26v6zm-38-14h20c2.206 0 4-1.794 4-4s-1.794-4-4-4c-.32 0-.663.054-1.077.169l-.874.244-.327-.847c-.602-1.559-2.063-2.566-3.722-2.566-.677 0-1.34.183-1.972.544l-.98.561-.438-1.042c-.782-1.861-2.592-3.063-4.61-3.063-2.757 0-5 2.243-5 5v1h-1c-2.206 0-4 1.794-4 4s1.794 4 4 4zm12 2v4h26v-5c0-.552-.448-1-1-1h-12.54c-1.099 1.224-2.688 2-4.46 2zm1 28h18.115c1.263-1.234 2.984-2 4.885-2 .691 0 1.361.11 2 .301v-4.301h-26v5c0 .552.448 1 1 1zm41 10c0-2.206-1.794-4-4-4-.32 0-.663.054-1.077.169l-.874.244-.327-.847c-.602-1.559-2.063-2.566-3.722-2.566-.677 0-1.34.183-1.972.544l-.98.561-.438-1.041c-.782-1.862-2.592-3.064-4.61-3.064-2.757 0-5 2.243-5 5v1h-1c-2.206 0-4 1.794-4 4s1.794 4 4 4h20c2.206 0 4-1.794 4-4zm-21 0h2v-2h-2zm12 0h2v-2h-2zm-8 0h2v-2h-2zm4 0h2v-2h-2zm-30-44h2v-2h-2zm4 0h2v-2h-2zm-12 0h2v-2h-2zm4 0h2v-2h-2z" fill="url(#SVGID_1_)"/></svg>