<svg id="Layer_30" enable-background="new 0 0 496 496" height="512" viewBox="0 0 496 496" width="512" xmlns="http://www.w3.org/2000/svg" xmlns:xlink="http://www.w3.org/1999/xlink"><linearGradient id="SVGID_1_" gradientUnits="userSpaceOnUse" x1="248" x2="248" y1="496" y2="0"><stop offset="0" stop-color="#9f2fff"/><stop offset="1" stop-color="#0bb1d3"/></linearGradient><path d="m469.004 67.361 9.583-19.166-30.781-30.782-19.167 9.583c-5.158-2.714-10.547-4.949-16.1-6.677l-6.773-20.319h-43.531l-6.773 20.319c-5.553 1.728-10.941 3.962-16.1 6.677l-19.167-9.583-30.781 30.782 9.583 19.166c-2.715 5.158-4.949 10.546-6.677 16.1l-20.32 6.773v5.766h-248c-13.233 0-24 10.766-24 24v320c0 13.234 10.767 24 24 24h33.376c-.888 2.504-1.376 5.195-1.376 8 0 13.234 10.767 24 24 24h272c13.233 0 24-10.766 24-24 0-2.805-.488-5.496-1.376-8h33.376c13.233 0 24-10.766 24-24v-224h-16v224c0 4.411-3.589 8-8 8h-56-272-56c-4.411 0-8-3.589-8-8v-320c0-4.411 3.589-8 8-8h248v21.766l20.319 6.773c1.728 5.553 3.962 10.941 6.677 16.1l-9.583 19.166 30.781 30.782 19.167-9.583c5.158 2.714 10.547 4.949 16.1 6.677l6.773 20.319h21.766v32h-144v-48h48v-16h-48v-48h16v-16h-32v304h176v-208h5.766l6.773-20.319c5.553-1.728 10.941-3.962 16.1-6.677l19.167 9.583 30.781-30.782-9.583-19.166c2.715-5.158 4.949-10.546 6.677-16.1l20.319-6.773v-43.532l-20.319-6.773c-1.728-5.554-3.962-10.942-6.677-16.1zm-117.004 396.639c4.411 0 8 3.589 8 8s-3.589 8-8 8h-272c-4.411 0-8-3.589-8-8s3.589-8 8-8zm32-192v48h-144v-48zm-144 144v-80h144v80zm240-293.766-17.493 5.832-1.096 4.197c-1.841 7.05-4.65 13.824-8.351 20.135l-2.194 3.743 8.252 16.505-14.473 14.473-16.506-8.253-3.743 2.195c-6.311 3.7-13.084 6.509-20.134 8.349l-4.197 1.095-5.831 17.495h-20.469l-5.831-17.495-4.197-1.095c-7.05-1.84-13.823-4.649-20.134-8.349l-3.743-2.195-16.506 8.253-14.473-14.473 8.252-16.505-2.194-3.743c-3.7-6.311-6.51-13.085-8.351-20.135l-1.096-4.197-17.492-5.832v-20.468l17.493-5.832 1.096-4.197c1.841-7.05 4.65-13.824 8.351-20.135l2.194-3.743-8.252-16.505 14.473-14.473 16.506 8.253 3.743-2.195c6.311-3.7 13.084-6.509 20.134-8.349l4.197-1.095 5.831-17.495h20.469l5.831 17.495 4.197 1.095c7.05 1.84 13.823 4.649 20.134 8.349l3.743 2.195 16.506-8.253 14.473 14.473-8.252 16.505 2.194 3.743c3.7 6.311 6.51 13.085 8.351 20.135l1.096 4.197 17.492 5.832zm-64-66.234h-64c-8.822 0-16 7.178-16 16v80c0 8.822 7.178 16 16 16h64c8.822 0 16-7.178 16-16v-80c0-8.822-7.178-16-16-16zm0 16 .002 16h-64.002v-16zm.004 32 .002 16h-64.006v-16zm-.004 48h-64v-16h64.008l.002 16s-.003 0-.01 0zm-208 280v-304h-176v304zm-160-16v-80h144v80zm144-144v48h-144v-48zm-144-16v-48h144v48zm144-112v48h-144v-48zm-128 24c0-4.418 3.582-8 8-8s8 3.582 8 8-3.582 8-8 8-8-3.582-8-8zm32 0c0-4.418 3.582-8 8-8s8 3.582 8 8-3.582 8-8 8-8-3.582-8-8zm-16 64c0 4.418-3.582 8-8 8s-8-3.582-8-8 3.582-8 8-8 8 3.582 8 8zm32 0c0 4.418-3.582 8-8 8s-8-3.582-8-8 3.582-8 8-8 8 3.582 8 8zm-48 64c0-4.418 3.582-8 8-8s8 3.582 8 8-3.582 8-8 8-8-3.582-8-8zm32 0c0-4.418 3.582-8 8-8s8 3.582 8 8-3.582 8-8 8-8-3.582-8-8zm-16 64c0 4.418-3.582 8-8 8s-8-3.582-8-8 3.582-8 8-8 8 3.582 8 8zm32 0c0 4.418-3.582 8-8 8s-8-3.582-8-8 3.582-8 8-8 8 3.582 8 8zm-32 32c0 4.418-3.582 8-8 8s-8-3.582-8-8 3.582-8 8-8 8 3.582 8 8zm32 0c0 4.418-3.582 8-8 8s-8-3.582-8-8 3.582-8 8-8 8 3.582 8 8zm16-40h16v48h-16zm32 0h16v48h-16zm16-176h-32v-16h32zm0 48v16h-32v-16zm0 80h-32v-16h32zm80-136c0-4.418 3.582-8 8-8s8 3.582 8 8-3.582 8-8 8-8-3.582-8-8zm8 56c4.418 0 8 3.582 8 8s-3.582 8-8 8-8-3.582-8-8 3.582-8 8-8zm24 8c0-4.418 3.582-8 8-8s8 3.582 8 8-3.582 8-8 8-8-3.582-8-8zm-32 64c0-4.418 3.582-8 8-8s8 3.582 8 8-3.582 8-8 8-8-3.582-8-8zm32 0c0-4.418 3.582-8 8-8s8 3.582 8 8-3.582 8-8 8-8-3.582-8-8zm-16 64c0 4.418-3.582 8-8 8s-8-3.582-8-8 3.582-8 8-8 8 3.582 8 8zm32 0c0 4.418-3.582 8-8 8s-8-3.582-8-8 3.582-8 8-8 8 3.582 8 8zm-32 32c0 4.418-3.582 8-8 8s-8-3.582-8-8 3.582-8 8-8 8 3.582 8 8zm32 0c0 4.418-3.582 8-8 8s-8-3.582-8-8 3.582-8 8-8 8 3.582 8 8zm16-40h16v48h-16zm32 0h16v48h-16zm16-48h-32v-16h32z" fill="url(#SVGID_1_)"/></svg>