<svg id="_x30_1" enable-background="new 0 0 496 496" height="512" viewBox="0 0 496 496" width="512" xmlns="http://www.w3.org/2000/svg" xmlns:xlink="http://www.w3.org/1999/xlink"><linearGradient id="SVGID_1_" gradientUnits="userSpaceOnUse" x1="248" x2="248" y1="496" y2="0"><stop offset="0" stop-color="#9f2fff"/><stop offset="1" stop-color="#0bb1d3"/></linearGradient><path d="m258.343 98.343 11.313 11.313-2.343 2.344c-5.159 5.159-12.018 8-19.313 8s-14.155-2.841-19.313-8l-2.343-2.343 11.313-11.313 2.343 2.343c2.137 2.137 4.978 3.313 8 3.313s5.863-1.177 8-3.313zm237.657-42.343v176c0 22.056-17.944 40-40 40h-120v16c0 8.822-7.178 16-16 16v20.253l25.83 21.525c15.932-15.919 37.921-25.778 62.17-25.778 48.523 0 88 39.477 88 88s-39.477 88-88 88-88-39.477-88-88c0-6.256.661-12.36 1.908-18.251l-44.827-37.749h-5.081v128c0 8.822-7.178 16-16 16h-16c-8.822 0-16-7.178-16-16v-128h-5.08l-147.236 123.988c-3.073 2.588-6.976 4.012-10.992 4.012h-.938c-4.558 0-8.843-1.775-12.066-4.998l-10.69-10.69c-3.223-3.223-4.998-7.508-4.998-12.066 0-5.079 2.238-9.857 6.14-13.109l137.86-114.884v-20.253c-8.822 0-16-7.178-16-16v-16h-120c-22.056 0-40-17.944-40-40v-176c0-22.056 17.944-40 40-40h148.983c9.018-9.827 21.958-16 36.315-16h45.403c14.357 0 27.297 6.173 36.315 16h148.984c22.056 0 40 17.944 40 40zm-40-24h-24v78.904c6.76-5.888 15.261-9.874 24.708-11.055l23.292-2.911v-40.938c0-13.234-10.766-24-24-24zm2.692 83.726c-15.217 1.902-26.692 14.9-26.692 30.236 0 14.008 9.491 26.165 23.082 29.562l24.918 6.23v-68.692zm-266.692-66.428c0 3.585.575 7.128 1.709 10.53l1.39 4.171h4.979c.648-8.381 5.573-15.77 13.189-19.578l11.308-5.654 7.894 5.262c11.745 7.832 25.415 11.971 39.531 11.971 7.091 0 13.472 3.094 17.869 8h11.032l1.391-4.172c1.134-3.402 1.708-6.945 1.708-10.53 0-18.36-14.937-33.298-33.298-33.298h-45.403c-18.361 0-33.299 14.938-33.299 33.298zm104 46.702h8c4.411 0 8-3.589 8-8s-3.589-8-8-8h-8zm-16 6.702v-22.702c0-4.411-3.589-8-8-8-17.285 0-34.024-5.068-48.407-14.657l-.168-.112-3.003 1.501c-2.728 1.364-4.422 4.106-4.422 7.156v36.813c0 11.683 7.447 22.015 18.53 25.709l5.47 1.823v19.344l8 12 8-12v-19.344l5.47-1.823c11.083-3.694 18.53-14.025 18.53-25.708zm-80-22.702h-8c-4.411 0-8 3.589-8 8s3.589 8 8 8h8zm-160 176h12.305c-2.732-4.711-4.305-10.173-4.305-16v-192c0-5.827 1.573-11.289 4.305-16h-12.305c-13.234 0-24 10.766-24 24v176c0 13.234 10.766 24 24 24zm40 0h336v-224h-99.141c2.026 5.386 3.141 11.213 3.141 17.298 0 5.308-.851 10.552-2.529 15.589l-.894 2.683c6.848 4.231 11.423 11.805 11.423 20.43 0 13.234-10.766 24-24 24h-9.014c-2.795 12.701-11.212 23.536-22.986 29.342v2.658h4.223c25.118 0 47.7 13.956 58.932 36.422l-14.311 7.155c-8.505-17.01-25.602-27.577-44.621-27.577h-7.942l-20.281 30.422-20.281-30.422h-7.942c-19.019 0-36.116 10.567-44.622 27.578l-14.311-7.155c11.233-22.467 33.815-36.423 58.933-36.423h4.223v-2.658c-11.774-5.806-20.191-16.641-22.986-29.342h-9.014c-13.234 0-24-10.766-24-24 0-8.625 4.575-16.199 11.424-20.43l-.894-2.682c-1.679-5.037-2.53-10.282-2.53-15.589 0-6.085 1.115-11.912 3.141-17.298h-99.141c-8.822 0-16 7.178-16 16v192c0 8.821 7.178 15.999 16 15.999zm114.08 96h-2.08c-6.108 0-11.423-3.443-14.118-8.488l-129.499 107.916c-.243.203-.383.5-.383.817 0 .28.114.554.312.752l10.69 10.69c.198.199.472.313.752.313h.938c.25 0 .494-.089.686-.25zm61.92-16h-16v144h16zm71.157 37.253c2.312-5.358 5.141-10.44 8.425-15.187l-17.464-14.553c-2.695 5.044-8.01 8.487-14.118 8.487h-2.081zm8.843 34.747c0 39.701 32.299 72 72 72s72-32.299 72-72-32.299-72-72-72-72 32.299-72 72zm-32-104h-112v32h32c0-8.822 7.178-16 16-16h16c8.822 0 16 7.178 16 16h32zm16-32h-144v16h144zm160-40v-33.754l-28.799-7.2c-7.296-1.824-13.813-5.309-19.201-9.985v74.939h24c13.234 0 24-10.766 24-24zm-304-24v16c0 8.822-7.178 16-16 16h-16c-8.822 0-16-7.178-16-16v-16c0-8.822 7.178-16 16-16h16c8.822 0 16 7.178 16 16zm-15.99 16-.01-16h-16v16h16zm79.99-16v16c0 8.822-7.178 16-16 16h-16c-8.822 0-16-7.178-16-16v-16c0-8.822 7.178-16 16-16h16c8.822 0 16 7.178 16 16zm-15.99 16-.01-16h-16v16h16zm79.99-16v16c0 8.822-7.178 16-16 16h-16c-8.822 0-16-7.178-16-16v-16c0-8.822 7.178-16 16-16h16c8.822 0 16 7.178 16 16zm-15.99 16-.01-16h-16v16h16zm79.99-16v16c0 8.822-7.178 16-16 16h-16c-8.822 0-16-7.178-16-16v-16c0-8.822 7.178-16 16-16h16c8.822 0 16 7.178 16 16zm-15.99 16-.01-16h-16v16h16zm103.99-72c4.418 0 8-3.582 8-8s-3.582-8-8-8-8 3.582-8 8 3.582 8 8 8zm-80 275.056v-38.111c0-11.549 9.396-20.944 20.944-20.944 3.235 0 6.474.765 9.367 2.211l38.111 19.056c7.141 3.569 11.578 10.747 11.578 18.732s-4.437 15.163-11.578 18.733l-38.111 19.055c-2.892 1.447-6.131 2.211-9.366 2.211-11.549.001-20.945-9.395-20.945-20.943zm16 0c0 2.726 2.218 4.944 4.944 4.944.763 0 1.528-.18 2.21-.521l38.113-19.056c1.686-.843 2.733-2.538 2.733-4.423s-1.047-3.58-2.733-4.422l-38.112-19.056c-.683-.342-1.448-.522-2.211-.522-2.726 0-4.944 2.218-4.944 4.944z" fill="url(#SVGID_1_)"/></svg>