<svg id="Layer_1" enable-background="new 0 0 450 450" height="512" viewBox="0 0 450 450" width="512" xmlns="http://www.w3.org/2000/svg" xmlns:xlink="http://www.w3.org/1999/xlink"><linearGradient id="SVGID_1_" gradientTransform="matrix(1 0 0 -1 0 450)" gradientUnits="userSpaceOnUse" x1="54.6" x2="395.405" y1="341.94" y2="1.134"><stop offset="0" stop-color="#00dbde"/><stop offset="1" stop-color="#fc00ff"/></linearGradient><path d="m436.01 388.22v-84.66c0-6.94-5.65-12.58-12.58-12.58h-70.03v-50.21c0-2.76-2.24-5-5-5h-118.4v-37.71c31.46-.55 83.42-6.36 83.42-25.56v-47.28c0-.01 0-.01 0-.02v-.01-94.58c0-20.26-57.84-25.61-88.42-25.61s-88.42 5.35-88.42 25.61v.02 141.87c0 19.2 51.96 25.01 83.42 25.56v37.71h-118.39c-2.76 0-5 2.24-5 5v50.21h-70.03c-6.94 0-12.58 5.65-12.58 12.58v99.5c0 6.94 5.65 12.58 12.58 12.58h57.85v19.36h-13.32c-2.76 0-5 2.24-5 5s2.24 5 5 5h60.99c2.76 0 5-2.24 5-5s-2.24-5-5-5h-13.32v-19.35h57.85c6.94 0 12.58-5.65 12.58-12.58v-99.5c0-6.94-5.65-12.58-12.58-12.58h-70.03v-45.21h118.38.01.01 118.38v45.21h-70.03c-6.94 0-12.58 5.65-12.58 12.58v99.5c0 6.94 5.65 12.58 12.58 12.58h57.85v19.35h-13.3c-2.76 0-5 2.24-5 5s2.24 5 5 5h60.99c2.76 0 5-2.24 5-5s-2.24-5-5-5h-13.32v-19.35h57.85c6.94 0 12.58-5.65 12.58-12.58l.01-14.85c-.01 0 0 0 0 0zm-132.59-310.32c0 .92-3.67 5.53-20.63 9.72-15.37 3.8-35.9 5.89-57.79 5.89s-42.41-2.09-57.79-5.89c-16.96-4.19-20.63-8.8-20.63-9.72v-34.48c17.9 9.84 55.69 12.8 78.42 12.8s60.52-2.96 78.42-12.8zm-156.84 12.82c17.9 9.84 55.69 12.8 78.42 12.8s60.52-2.96 78.42-12.8v34.49c-.02.93-3.72 5.53-20.63 9.71-15.38 3.8-35.9 5.89-57.79 5.89s-42.41-2.09-57.79-5.89c-16.96-4.19-20.63-8.8-20.63-9.72zm20.63-69.83c15.38-3.8 35.9-5.89 57.79-5.89s42.41 2.09 57.79 5.89c16.96 4.19 20.63 8.8 20.63 9.72s-3.67 5.53-20.63 9.72c-15.38 3.8-35.9 5.89-57.79 5.89s-42.41-2.09-57.79-5.89c-16.91-4.18-20.61-8.77-20.63-9.71v-.01s0 0 0-.01c.01-.92 3.69-5.53 20.63-9.71zm-20.63 151.61v-34.49c17.9 9.84 55.69 12.8 78.42 12.8s60.52-2.96 78.42-12.8v34.48c0 .92-3.67 5.53-20.63 9.72-15.37 3.8-35.9 5.89-57.79 5.89s-42.41-2.09-57.79-5.89c-16.96-4.18-20.63-8.8-20.63-9.71zm-37.79 262.5h-14.35v-19.35h14.35zm67.85-29.35h-62.83c-.01 0-.01 0-.02 0s-.01 0-.02 0h-24.31c-.01 0-.01 0-.02 0s-.01 0-.02 0h-62.84c-1.42 0-2.58-1.16-2.58-2.58v-9.85h155.23v9.85c-.01 1.42-1.17 2.58-2.59 2.58zm2.58-102.09v79.66h-155.23v-79.66c0-1.42 1.16-2.58 2.58-2.58h150.06c1.43 0 2.59 1.16 2.59 2.58zm94.14-2.58h150.06c1.43 0 2.58 1.16 2.58 2.58v79.66h-155.22v-79.66c0-1.42 1.16-2.58 2.58-2.58zm82.21 134.02h-14.35v-19.35h14.35zm67.85-29.35h-62.83c-.01 0-.01 0-.02 0s-.01 0-.02 0h-24.31c-.01 0-.01 0-.02 0s-.01 0-.02 0h-62.83c-1.42 0-2.58-1.16-2.58-2.58v-9.85h155.23v9.85c-.01 1.42-1.17 2.58-2.6 2.58z" fill="url(#SVGID_1_)"/></svg>